RBDS014runT25_grf
version=1
nRows=37
nColumns=19
inDegrees=no
endheader
time	ground_force_r_vx	ground_force_r_vy	ground_force_r_vz	ground_force_r_px	ground_force_r_py	ground_force_r_pz	ground_force_r_mx	ground_force_r_my	ground_force_r_mz	ground_force_l_vx	ground_force_l_vy	ground_force_l_vz	ground_force_l_px	ground_force_l_py	ground_force_l_pz	ground_force_l_mx	ground_force_l_my	ground_force_l_mz
     22.49800000	     93.33674931	   1117.79866440	    -27.67837941	      1.94367854	      0.00000000	      1.10282747	      0.00000000	      3.69391755	      0.00000000	      0.00000000	      0.00000000	      0.00000000	      0.00000000	      0.00000000	      0.00000000	      0.00000000	      0.00000000	      0.00000000
     22.49900000	     95.20360933	   1108.16505331	    -26.94331876	      1.94153244	      0.00000000	      1.10265586	      0.00000000	      3.72960587	      0.00000000	      0.00000000	      0.00000000	      0.00000000	      0.00000000	      0.00000000	      0.00000000	      0.00000000	      0.00000000	      0.00000000
     22.50000000	     97.07046935	   1098.53144221	    -26.20825810	      1.93938633	      0.00000000	      1.10248424	      0.00000000	      3.76529418	      0.00000000	      0.00000000	      0.00000000	      0.00000000	      0.00000000	      0.00000000	      0.00000000	      0.00000000	      0.00000000	      0.00000000
     22.50100000	     98.79018649	   1088.59398323	    -25.51822221	      1.93724653	      0.00000000	      1.10230912	      0.00000000	      3.78616952	      0.00000000	      0.00000000	      0.00000000	      0.00000000	      0.00000000	      0.00000000	      0.00000000	      0.00000000	      0.00000000	      0.00000000
     22.50200000	    100.50990362	   1078.65652425	    -24.82818633	      1.93510673	      0.00000000	      1.10213399	      0.00000000	      3.80704486	      0.00000000	      0.00000000	      0.00000000	      0.00000000	      0.00000000	      0.00000000	      0.00000000	      0.00000000	      0.00000000	      0.00000000
     22.50300000	    102.22962075	   1068.71906527	    -24.13815044	      1.93296693	      0.00000000	      1.10195886	      0.00000000	      3.82792020	      0.00000000	      0.00000000	      0.00000000	      0.00000000	      0.00000000	      0.00000000	      0.00000000	      0.00000000	      0.00000000	      0.00000000
     22.50400000	    103.84156730	   1058.59343997	    -23.48169536	      1.93083444	      0.00000000	      1.10178229	      0.00000000	      3.83888416	      0.00000000	      0.00000000	      0.00000000	      0.00000000	      0.00000000	      0.00000000	      0.00000000	      0.00000000	      0.00000000	      0.00000000
     22.50500000	    105.39962854	   1048.37373152	    -22.84203068	      1.92870562	      0.00000000	      1.10160500	      0.00000000	      3.84489243	      0.00000000	      0.00000000	      0.00000000	      0.00000000	      0.00000000	      0.00000000	      0.00000000	      0.00000000	      0.00000000	      0.00000000
     22.50600000	    106.95768979	   1038.15402306	    -22.20236600	      1.92657680	      0.00000000	      1.10142771	      0.00000000	      3.85090069	      0.00000000	      0.00000000	      0.00000000	      0.00000000	      0.00000000	      0.00000000	      0.00000000	      0.00000000	      0.00000000	      0.00000000
     22.50700000	    108.45789628	   1027.84880771	    -21.58078904	      1.92445307	      0.00000000	      1.10125014	      0.00000000	      3.85210740	      0.00000000	      0.00000000	      0.00000000	      0.00000000	      0.00000000	      0.00000000	      0.00000000	      0.00000000	      0.00000000	      0.00000000
     22.50800000	    109.84239324	   1017.37257859	    -20.99538751	      1.92233954	      0.00000000	      1.10107202	      0.00000000	      3.84371099	      0.00000000	      0.00000000	      0.00000000	      0.00000000	      0.00000000	      0.00000000	      0.00000000	      0.00000000	      0.00000000	      0.00000000
     22.50900000	    111.22689020	   1006.89634947	    -20.40998597	      1.92022601	      0.00000000	      1.10089390	      0.00000000	      3.83531457	      0.00000000	      0.00000000	      0.00000000	      0.00000000	      0.00000000	      0.00000000	      0.00000000	      0.00000000	      0.00000000	      0.00000000
     22.51000000	    112.61138716	    996.42012034	    -19.82458444	      1.91811248	      0.00000000	      1.10071578	      0.00000000	      3.82691816	      0.00000000	      0.00000000	      0.00000000	      0.00000000	      0.00000000	      0.00000000	      0.00000000	      0.00000000	      0.00000000	      0.00000000
     22.51100000	    113.81316550	    985.71692492	    -19.29594425	      1.91601806	      0.00000000	      1.10053813	      0.00000000	      3.80502946	      0.00000000	      0.00000000	      0.00000000	      0.00000000	      0.00000000	      0.00000000	      0.00000000	      0.00000000	      0.00000000	      0.00000000
     22.51200000	    115.01494384	    975.01372951	    -18.76730406	      1.91392363	      0.00000000	      1.10036048	      0.00000000	      3.78314076	      0.00000000	      0.00000000	      0.00000000	      0.00000000	      0.00000000	      0.00000000	      0.00000000	      0.00000000	      0.00000000	      0.00000000
     22.51300000	    116.21672218	    964.31053409	    -18.23866387	      1.91182920	      0.00000000	      1.10018283	      0.00000000	      3.76125205	      0.00000000	      0.00000000	      0.00000000	      0.00000000	      0.00000000	      0.00000000	      0.00000000	      0.00000000	      0.00000000	      0.00000000
     22.51400000	    117.29244341	    953.47799070	    -17.74866306	      1.90974963	      0.00000000	      1.10000636	      0.00000000	      3.73122758	      0.00000000	      0.00000000	      0.00000000	      0.00000000	      0.00000000	      0.00000000	      0.00000000	      0.00000000	      0.00000000	      0.00000000
     22.51500000	    118.30513609	    942.58077334	    -17.27798194	      1.90767749	      0.00000000	      1.09983046	      0.00000000	      3.69713521	      0.00000000	      0.00000000	      0.00000000	      0.00000000	      0.00000000	      0.00000000	      0.00000000	      0.00000000	      0.00000000	      0.00000000
     22.51600000	    119.31782877	    931.68355597	    -16.80730081	      1.90560534	      0.00000000	      1.09965457	      0.00000000	      3.66304285	      0.00000000	      0.00000000	      0.00000000	      0.00000000	      0.00000000	      0.00000000	      0.00000000	      0.00000000	      0.00000000	      0.00000000
     22.51700000	    120.26627571	    920.73359599	    -16.35594431	      1.90354145	      0.00000000	      1.09947969	      0.00000000	      3.62541209	      0.00000000	      0.00000000	      0.00000000	      0.00000000	      0.00000000	      0.00000000	      0.00000000	      0.00000000	      0.00000000	      0.00000000
     22.51800000	    121.08623115	    909.67815077	    -15.94323704	      1.90149404	      0.00000000	      1.09930683	      0.00000000	      3.58070453	      0.00000000	      0.00000000	      0.00000000	      0.00000000	      0.00000000	      0.00000000	      0.00000000	      0.00000000	      0.00000000	      0.00000000
     22.51900000	    121.90618660	    898.62270554	    -15.53052978	      1.89944663	      0.00000000	      1.09913397	      0.00000000	      3.53599697	      0.00000000	      0.00000000	      0.00000000	      0.00000000	      0.00000000	      0.00000000	      0.00000000	      0.00000000	      0.00000000	      0.00000000
     22.52000000	    122.72614205	    887.56726031	    -15.11782252	      1.89739922	      0.00000000	      1.09896111	      0.00000000	      3.49128942	      0.00000000	      0.00000000	      0.00000000	      0.00000000	      0.00000000	      0.00000000	      0.00000000	      0.00000000	      0.00000000	      0.00000000
     22.52100000	    123.35226280	    876.39161297	    -14.76205558	      1.89537819	      0.00000000	      1.09879256	      0.00000000	      3.43777964	      0.00000000	      0.00000000	      0.00000000	      0.00000000	      0.00000000	      0.00000000	      0.00000000	      0.00000000	      0.00000000	      0.00000000
     22.52200000	    123.97838354	    865.21596562	    -14.40628864	      1.89335715	      0.00000000	      1.09862402	      0.00000000	      3.38426986	      0.00000000	      0.00000000	      0.00000000	      0.00000000	      0.00000000	      0.00000000	      0.00000000	      0.00000000	      0.00000000	      0.00000000
     22.52300000	    124.60450429	    854.04031827	    -14.05052171	      1.89133611	      0.00000000	      1.09845547	      0.00000000	      3.33076009	      0.00000000	      0.00000000	      0.00000000	      0.00000000	      0.00000000	      0.00000000	      0.00000000	      0.00000000	      0.00000000	      0.00000000
     22.52400000	    125.10221820	    842.81092894	    -13.73142373	      1.88933315	      0.00000000	      1.09829067	      0.00000000	      3.27269285	      0.00000000	      0.00000000	      0.00000000	      0.00000000	      0.00000000	      0.00000000	      0.00000000	      0.00000000	      0.00000000	      0.00000000
     22.52500000	    125.53572870	    831.55466861	    -13.43066024	      1.88733923	      0.00000000	      1.09812773	      0.00000000	      3.21234689	      0.00000000	      0.00000000	      0.00000000	      0.00000000	      0.00000000	      0.00000000	      0.00000000	      0.00000000	      0.00000000	      0.00000000
     22.52600000	    125.96923920	    820.29840828	    -13.12989674	      1.88534531	      0.00000000	      1.09796480	      0.00000000	      3.15200092	      0.00000000	      0.00000000	      0.00000000	      0.00000000	      0.00000000	      0.00000000	      0.00000000	      0.00000000	      0.00000000	      0.00000000
     22.52700000	    126.33963432	    809.02876439	    -12.84657074	      1.88336038	      0.00000000	      1.09780418	      0.00000000	      3.09006069	      0.00000000	      0.00000000	      0.00000000	      0.00000000	      0.00000000	      0.00000000	      0.00000000	      0.00000000	      0.00000000	      0.00000000
     22.52800000	    126.58379866	    797.73235338	    -12.59811972	      1.88139341	      0.00000000	      1.09764820	      0.00000000	      3.02493193	      0.00000000	      0.00000000	      0.00000000	      0.00000000	      0.00000000	      0.00000000	      0.00000000	      0.00000000	      0.00000000	      0.00000000
     22.52900000	    126.82796300	    786.43594237	    -12.34966870	      1.87942643	      0.00000000	      1.09749222	      0.00000000	      2.95980317	      0.00000000	      0.00000000	      0.00000000	      0.00000000	      0.00000000	      0.00000000	      0.00000000	      0.00000000	      0.00000000	      0.00000000
     22.53000000	    127.07212735	    775.13953136	    -12.10121768	      1.87745946	      0.00000000	      1.09733624	      0.00000000	      2.89467441	      0.00000000	      0.00000000	      0.00000000	      0.00000000	      0.00000000	      0.00000000	      0.00000000	      0.00000000	      0.00000000	      0.00000000
     22.53100000	    127.13193806	    763.84362069	    -11.90178223	      1.87551833	      0.00000000	      1.09718861	      0.00000000	      2.82684477	      0.00000000	      0.00000000	      0.00000000	      0.00000000	      0.00000000	      0.00000000	      0.00000000	      0.00000000	      0.00000000	      0.00000000
     22.53200000	    127.19174878	    752.54771001	    -11.70234677	      1.87357720	      0.00000000	      1.09704097	      0.00000000	      2.75901512	      0.00000000	      0.00000000	      0.00000000	      0.00000000	      0.00000000	      0.00000000	      0.00000000	      0.00000000	      0.00000000	      0.00000000
     22.53300000	    127.25155950	    741.25179934	    -11.50291132	      1.87163606	      0.00000000	      1.09689334	     -0.00000000	      2.69118548	      0.00000000	      0.00000000	      0.00000000	      0.00000000	      0.00000000	      0.00000000	      0.00000000	      0.00000000	      0.00000000	      0.00000000
     22.53400000	    127.19273525	    729.98301378	    -11.33364583	      1.86971081	      0.00000000	      1.09675224	     -0.00000000	      2.62292773	      0.00000000	      0.00000000	      0.00000000	      0.00000000	      0.00000000	      0.00000000	      0.00000000	      0.00000000	      0.00000000	      0.00000000
